<svg xmlns="http://www.w3.org/2000/svg" viewBox="0 0 128 128">
  <g fill="#fff">
    <path d="M63.8 1.3a3.7 3.7 0 0 1 .4 0 3.7 3.7 0 0 1 3.7 3.7 3.7 3.7 0 0 1-3.7 3.7A3.7 3.7 0 0 1 60.5 5a3.7 3.7 0 0 1 3.3-3.7z"/>
    <path d="M64 14.6c-27.3 0-49.4 22.1-49.4 49.4S36.7 113.4 64 113.4s49.4-22.1 49.4-49.4S91.3 14.6 64 14.6zm0 6.5a3.1 3.1 0 0 1 3.1 3.1 3.1 3.1 0 0 1-3.1 3.1 3.1 3.1 0 0 1-3.1-3.1 3.1 3.1 0 0 1 3.1-3.1zM35.7 33.5a3.1 3.1 0 0 1 3.1 3.1 3.1 3.1 0 0 1-3.1 3.1 3.1 3.1 0 0 1-3.1-3.1 3.1 3.1 0 0 1 3.1-3.1zm56.6 0a3.1 3.1 0 0 1 3.1 3.1 3.1 3.1 0 0 1-3.1 3.1 3.1 3.1 0 0 1-3.1-3.1 3.1 3.1 0 0 1 3.1-3.1zM28.5 47h11.8l.8 2H30.5a2 2 0 0 0-2 2v22a2 2 0 0 0 2 2h10.8l5.4 8.2H37a2 2 0 0 0-2 2v5.7H28.5V47zm31.3 0h8.4v9.6h10.1a2 2 0 0 1 2 2v14.8a2 2 0 0 1-2 2H68.2v7.2h12.3l5.4 8.2H59.8V47zm-14.1 4h10.6v34.1H45.7V51zm16.6 11.6v10.8h8.1V62.6h-8.1zM21 60.3a3.1 3.1 0 0 1 3.1 3.1A3.1 3.1 0 0 1 21 66.5a3.1 3.1 0 0 1-3.1-3.1 3.1 3.1 0 0 1 3.1-3.1zm86 0a3.1 3.1 0 0 1 3.1 3.1 3.1 3.1 0 0 1-3.1 3.1 3.1 3.1 0 0 1-3.1-3.1 3.1 3.1 0 0 1 3.1-3.1zM92.3 85.3h7.2v4H92l-.2.2h7.7v1.4H91v.5h8.5v1.4h-9.5a3.1 3.1 0 0 1-3.1-3.1V87h-1v-1.6h6.4zm-57.8 2.2a3.1 3.1 0 0 1 3 3.1 3.1 3.1 0 0 1-3 3.1 3.1 3.1 0 0 1-3.2-3.1 3.1 3.1 0 0 1 3.2-3.1zm59 0a3.1 3.1 0 0 1 3.1 3.1 3.1 3.1 0 0 1-3.1 3.1 3.1 3.1 0 0 1-3.1-3.1 3.1 3.1 0 0 1 3.1-3.1zM64 100.7a3.1 3.1 0 0 1 3.1 3.1 3.1 3.1 0 0 1-3.1 3.1 3.1 3.1 0 0 1-3.1-3.1 3.1 3.1 0 0 1 3.1-3.1z"/>
  </g>
</svg>
