<?xml version="1.0" encoding="UTF-8" standalone="no"?>
<!-- Created with Inkscape (http://www.inkscape.org/) -->

<svg
   width="128mm"
   height="128mm"
   viewBox="0 0 128 128"
   version="1.1"
   id="svg1"
   inkscape:version="1.4.3 (0d15f75, 2025-12-25)"
   sodipodi:docname="icon-light.svg"
   xmlns:inkscape="http://www.inkscape.org/namespaces/inkscape"
   xmlns:sodipodi="http://sodipodi.sourceforge.net/DTD/sodipodi-0.dtd"
   xmlns="http://www.w3.org/2000/svg"
   xmlns:svg="http://www.w3.org/2000/svg">
  <sodipodi:namedview
     id="namedview1"
     pagecolor="#ffffff"
     bordercolor="#000000"
     borderopacity="0.25"
     inkscape:showpageshadow="2"
     inkscape:pageopacity="0.0"
     inkscape:pagecheckerboard="0"
     inkscape:deskcolor="#d1d1d1"
     inkscape:document-units="mm"
     inkscape:zoom="1.0167041"
     inkscape:cx="344.74141"
     inkscape:cy="363.42925"
     inkscape:window-width="1920"
     inkscape:window-height="1009"
     inkscape:window-x="-8"
     inkscape:window-y="-8"
     inkscape:window-maximized="1"
     inkscape:current-layer="layer1" />
  <defs
     id="defs1" />
  <g
     inkscape:label="Capa 1"
     inkscape:groupmode="layer"
     id="layer1">
    <path
       style="display:inline;fill:#040404;stroke:none;stroke-width:1.26354"
       d="m 98.257509,25.541923 c 0,3.537922 -0.909751,8.566825 0.442241,11.877309 1.225637,3.007234 4.30868,4.384497 4.97836,7.846607 0.53069,2.703984 0.26535,5.622769 0.26535,8.352025 v 14.707647 10.032537 c 0,2.249107 0.0884,4.611934 -0.93503,6.684145 -1.26354,2.564994 -3.72745,4.194965 -6.090277,5.64804 -2.880879,1.781597 -5.787029,3.512651 -8.69318,5.256341 -5.028903,3.01987 -10.045171,6.052376 -15.048803,9.110146 -2.615535,1.6047 -5.496414,3.80327 -8.693176,3.85381 -2.716619,0.0505 -5.129987,-1.55416 -7.353824,-2.90615 -3.563193,-2.17329 -7.151656,-4.29605 -10.702214,-6.481977 -4.321319,-2.653442 -8.705815,-5.243706 -13.03977,-7.884512 -2.539723,-1.541523 -5.407966,-3.057776 -7.050573,-5.635405 -2.16066,-3.373661 -1.490982,-7.55599 -1.44044,-11.32135 0.101084,-7.113751 -0.101083,-14.278043 -0.189531,-21.391793 -0.05054,-3.689549 -0.41697,-8.06141 1.667877,-11.308718 1.490982,-2.32492 4.04334,-3.664277 6.355624,-5.028904 3.247307,-1.907951 6.469344,-3.853808 9.69138,-5.799665 5.028903,-3.032504 9.99463,-6.153457 15.048804,-9.148056 2.754525,-1.629971 5.749124,-3.310484 9.021701,-2.236472 2.375459,0.770762 4.574024,2.337556 6.671507,3.639006 1.276179,0.783397 2.741888,1.617336 3.449473,3.007234 0.783397,1.528887 0.568594,3.48738 0.568594,5.142622 v 10.032536 18.725719 c 0,3.727454 0.379063,7.732887 -0.58123,11.371892 -1.427803,5.357425 -5.97656,9.678744 -11.4477,10.651673 -10.803298,1.907951 -19.193227,-10.348422 -15.238336,-20.001895 3.032505,-7.39173 9.918818,-9.653473 17.234731,-9.021702 0,-2.223838 0.02527,-4.46031 -0.01264,-6.684146 -0.01264,-1.13719 0.03791,-2.564994 -0.720216,-3.512653 -1.490982,-1.844774 -5.319519,-0.947658 -7.290647,-0.606501 -7.189563,1.225637 -13.633635,5.559593 -17.424266,11.8015 -9.463942,15.579492 0.454876,37.514609 19.092144,39.005591 2.90615,0.227438 5.875474,0.06318 8.693176,-0.682314 3.019869,-0.796032 5.862842,-2.160659 8.352022,-4.030704 2.805067,-2.122753 5.23107,-4.814101 6.974761,-7.884512 3.34839,-5.875478 3.386296,-12.483811 3.386296,-19.054237 0,-8.69318 -0.328521,-17.373726 -0.328521,-26.079543 V 25.226037 c 0,-1.705784 0.265344,-3.828537 -0.568595,-5.395332 C 86.317022,17.998567 83.903654,16.962462 82.19787,15.938991 77.661749,13.209737 72.809743,9.3811998 67.490224,8.4461775 60.439655,7.2205402 55.22122,10.594202 49.43419,14.056311 43.179649,17.809036 36.937744,21.56176 30.708474,25.339756 c -4.030704,2.451274 -8.870076,4.561392 -12.15529,8.036137 -6.772594,7.176928 -4.321319,18.713083 -4.232871,27.621066 0.05054,5.572227 0.08845,11.144454 -0.01264,16.716681 -0.07581,4.321319 -0.454875,8.604732 1.276179,12.698614 2.148025,5.104716 6.92422,7.593897 11.43507,10.297876 l 22.402628,13.44411 c 5.054175,3.04514 9.893547,6.31772 16.047004,5.93865 5.281609,-0.31588 9.653469,-3.51265 14.037964,-6.14082 L 101.23947,100.9123 c 4.29605,-2.577628 8.87008,-4.915184 11.33399,-9.501847 2.48918,-4.637205 2.04694,-9.956724 2.04694,-15.036169 V 50.964421 c 0,-5.028903 0.35379,-10.196798 -2.28701,-14.707649 -2.9946,-5.09208 -9.02171,-8.061408 -14.088516,-10.702214"
       id="path1-5-2"
       sodipodi:nodetypes="csssccssssssssssssssssssccssssccssssssssccssssssscsccsscssssc" />
  </g>
</svg>
