<?xml version="1.0" encoding="UTF-8" standalone="no"?>
<!-- Created with Inkscape (http://www.inkscape.org/) -->

<svg
   width="128mm"
   height="128mm"
   viewBox="0 0 128 128"
   version="1.1"
   id="svg1"
   inkscape:version="1.4.3 (0d15f75, 2025-12-25)"
   sodipodi:docname="icon.svg"
   xml:space="preserve"
   xmlns:inkscape="http://www.inkscape.org/namespaces/inkscape"
   xmlns:sodipodi="http://sodipodi.sourceforge.net/DTD/sodipodi-0.dtd"
   xmlns="http://www.w3.org/2000/svg"
   xmlns:svg="http://www.w3.org/2000/svg"><sodipodi:namedview
     id="namedview1"
     pagecolor="#1c1c1c"
     bordercolor="#000000"
     borderopacity="0.25"
     inkscape:showpageshadow="2"
     inkscape:pageopacity="0.0"
     inkscape:pagecheckerboard="0"
     inkscape:deskcolor="#d1d1d1"
     inkscape:document-units="mm"
     inkscape:zoom="0.50835205"
     inkscape:cx="122.94629"
     inkscape:cy="124.91343"
     inkscape:window-width="1920"
     inkscape:window-height="1009"
     inkscape:window-x="-8"
     inkscape:window-y="-8"
     inkscape:window-maximized="1"
     inkscape:current-layer="layer1" /><defs
     id="defs1" /><g
     inkscape:label="Capa 1"
     inkscape:groupmode="layer"
     id="layer1"><path
       id="path7-2-3"
       style="display:inline;fill:#ffffff;stroke:none;stroke-width:1.36482"
       d="M 63.576172,3.0351562 C 58.443246,3.2277707 53.81622,5.7816968 49.518077,8.3671303 41.614732,13.082287 33.758905,17.880437 25.853516,22.591797 21.425946,25.1355 16.601265,27.413285 13.335789,31.481238 10.1067,35.509667 9.1470757,40.814808 9.0324578,45.85067 c -0.132224,5.807818 0.6325123,11.552708 0.5444859,17.350813 0.078343,6.81014 0.01164,13.620708 -0.1261411,20.429342 -0.043367,4.257771 0.7227344,8.747603 3.3966634,12.188645 3.12217,4.08322 7.871775,6.3498 12.143382,8.99478 9.119926,5.45821 18.215925,10.96017 27.347543,16.39567 3.965252,2.29854 8.470039,4.10115 13.136312,3.72965 4.962742,-0.31936 9.322194,-3.00415 13.437662,-5.56188 9.906946,-6.00379 19.873057,-11.91842 29.790835,-17.90061 3.58965,-2.22285 6.9995,-5.14312 8.62501,-9.143256 2.08112,-4.938069 1.60706,-10.412295 1.62687,-15.640465 -0.007,-10.756024 0.0122,-21.5126 -0.004,-32.268265 -0.0738,-4.355701 -0.8415,-8.97652 -3.66872,-12.447635 -2.95666,-3.572148 -6.93852,-6.094937 -10.88207,-8.441499 -2.69172,-1.577922 -5.501931,-2.940145 -8.161338,-4.574097 C 92.568726,16.896874 88.850883,14.905283 85.366314,12.53029 82.210277,10.59461 79.138273,8.5200457 75.951914,6.6345514 72.268999,4.4666839 68.096141,2.8177953 63.752491,3.0303747 l -0.09996,0.00271 z" /><path
       style="display:inline;fill:#040404;stroke:none;stroke-width:1.26354"
       d="m 98.023735,25.385768 c 0,3.537922 -0.909764,8.566825 0.44224,11.877309 1.22563,3.007234 4.308675,4.384497 4.978355,7.846607 0.53069,2.703984 0.26535,5.622769 0.26535,8.352025 v 14.707647 10.032537 c 0,2.249107 0.0884,4.611934 -0.93503,6.684145 -1.26354,2.564994 -3.727445,4.194965 -6.090279,5.64804 -2.88088,1.781597 -5.78703,3.512651 -8.69318,5.256341 -5.0289,3.01987 -10.04517,6.052371 -15.0488,9.110141 -2.61554,1.6047 -5.49642,3.80327 -8.69318,3.85381 -2.71662,0.0505 -5.12999,-1.55416 -7.35382,-2.90615 -3.5632,-2.17329 -7.15166,-4.29605 -10.70222,-6.481972 -4.32132,-2.653442 -8.70581,-5.243706 -13.03977,-7.884512 -2.53972,-1.541523 -5.40796,-3.057776 -7.05057,-5.635405 -2.16066,-3.373661 -1.49098,-7.55599 -1.44044,-11.32135 0.10108,-7.113751 -0.10108,-14.278043 -0.18953,-21.391793 -0.0505,-3.689549 -0.41697,-8.06141 1.66788,-11.308718 1.49098,-2.32492 4.04334,-3.664277 6.35562,-5.028904 3.24731,-1.907951 6.46934,-3.853808 9.69138,-5.799665 5.0289,-3.032504 9.99463,-6.153457 15.0488,-9.148056 2.75453,-1.629971 5.74913,-3.310484 9.0217,-2.236472 2.37546,0.770762 4.57403,2.337556 6.67151,3.639006 1.27618,0.783397 2.74189,1.617336 3.44948,3.007234 0.78339,1.528887 0.56859,3.48738 0.56859,5.142622 V 41.432771 60.15849 c 0,3.727454 0.37906,7.732887 -0.58123,11.371892 -1.4278,5.357425 -5.97656,9.678744 -11.4477,10.651673 -10.8033,1.907951 -19.19323,-10.348422 -15.23834,-20.001895 3.03251,-7.39173 9.91882,-9.653473 17.23473,-9.021702 0,-2.223838 0.0253,-4.46031 -0.0126,-6.684146 -0.0126,-1.13719 0.0379,-2.564994 -0.72021,-3.512653 -1.49098,-1.844774 -5.31952,-0.947658 -7.29065,-0.606501 -7.18956,1.225637 -13.63363,5.559593 -17.42427,11.8015 -9.46394,15.579492 0.45488,37.514609 19.09215,39.005591 2.90615,0.227438 5.87547,0.06318 8.69318,-0.682314 3.01986,-0.796032 5.86284,-2.160659 8.35202,-4.030704 2.80506,-2.122753 5.23107,-4.814101 6.97476,-7.884512 3.34839,-5.875478 3.38629,-12.483811 3.38629,-19.054237 0,-8.69318 -0.32852,-17.373726 -0.32852,-26.079543 V 25.069882 c 0,-1.705784 0.26535,-3.828537 -0.56859,-5.395332 -0.98556,-1.832138 -3.39893,-2.868242 -5.10471,-3.891713 -4.53612,-2.729254 -9.38813,-6.5577915 -14.70765,-7.4928137 -7.05057,-1.2256373 -12.269,2.1480247 -18.05603,5.6101337 -6.25454,3.752725 -12.49645,7.505448 -18.72572,11.283444 -4.0307,2.451274 -8.87008,4.561392 -12.15529,8.036137 -6.77259,7.176928 -4.32132,18.713083 -4.23287,27.621066 0.0505,5.572227 0.0884,11.144454 -0.0126,16.716681 -0.0758,4.321319 -0.45488,8.604732 1.27618,12.698614 2.14802,5.104716 6.92422,7.593897 11.43507,10.297871 l 22.40263,13.44411 c 5.05417,3.04514 9.89354,6.31772 16.047,5.93865 5.28161,-0.31588 9.65347,-3.51265 14.03797,-6.14082 l 21.732949,-13.03977 c 4.29605,-2.577623 8.87008,-4.915179 11.33399,-9.501842 2.48918,-4.637205 2.04694,-9.956724 2.04694,-15.036169 V 50.808266 c 0,-5.028903 0.35379,-10.196798 -2.28701,-14.707649 -2.9946,-5.09208 -9.02171,-8.061408 -14.088515,-10.702214"
       id="path1-5-2-4"
       sodipodi:nodetypes="csssccssssssssssssssssssccssssccssssssssccssssssscsccsscssssc" /></g></svg>
